<?xml version="1.0" encoding="iso-8859-1"?>
<!-- Generator: Adobe Illustrator 16.0.0, SVG Export Plug-In . SVG Version: 6.00 Build 0)  -->
<!DOCTYPE svg PUBLIC "-//W3C//DTD SVG 1.1//EN" "http://www.w3.org/Graphics/SVG/1.1/DTD/svg11.dtd">
<svg version="1.1" id="Capa_1" xmlns="http://www.w3.org/2000/svg" xmlns:xlink="http://www.w3.org/1999/xlink" x="0px" y="0px"
	 width="964.556px" height="964.556px" viewBox="0 0 964.556 964.556" style="enable-background:new 0 0 964.556 964.556;"
	 xml:space="preserve">
<g>
	<g>
		<path d="M378.1,761.828c25.301,0,50-2.5,73.9-7.2c-1.2-13.7,2.7-27.5,11.6-38.8L680,441.228c10.5-13.3,26.2-21,43.2-21
			c11,0,21.399,3.2,30.3,9.101c1.8-14.9,2.7-30.101,2.7-45.5c0-208.8-169.3-378.1-378.101-378.1c-208.8,0-378.1,169.2-378.1,378
			S169.3,761.828,378.1,761.828z M448.6,436.628c-15.199-18.7-41.3-26.601-64.8-32c-29.1-6.601-55.399-13.2-81.8-28
			c-16.9-9.4-30.2-22.7-39.3-39.5c-9.1-16.6-13.7-35.8-13.7-56.8c0-37.4,13.5-68.2,40.1-91.5c15.7-13.8,37.2-23.3,61.5-27.8v-20.4
			c0-13.8,11.2-25,25-25H389.2c13.8,0,25,11.2,25,25v20.7c22.5,4.4,42.6,13.2,57.6,25.7c15.9,13.2,27.601,30,34.8,50.1
			c5.301,14.8-4.399,30.7-19.899,33l-13.2,2c-12,1.8-23.5-5.2-27.4-16.7c-3.199-9.3-7.399-17-12.699-22.9
			c-11.9-13.4-30.7-21-51.5-21c-22.2,0-43.101,8.6-56,23.1c-10.601,11.9-15.7,25.5-15.7,41.8c0,15.9,4.5,29.4,13.3,40
			c18.4,22.2,48.6,28.2,77.7,34.1c17,3.4,34.6,7,49.899,13.7c16.301,7.2,29.801,16.1,40.101,26.4c10.399,10.399,18.5,23,24.1,37.3
			c5.601,14.2,8.4,29.8,8.4,46.4c0,36.3-11.8,67.1-34.9,91.399c-19,20-44.899,33.2-74.6,38.5v15.101c0,13.8-11.2,25-25,25h-13.7
			c-13.8,0-25-11.2-25-25v-15.7c-16.4-3.101-32.1-8.4-46.2-15.7c-16.6-8.6-31.1-22.5-43.1-41.4c-8-12.6-13.8-27.199-17.3-43.6
			c-3-13.8,6.3-27.3,20.2-29.7l13.5-2.399c12.9-2.2,25.3,5.8,28.5,18.5c3.801,14.899,8.9,26.6,15.301,34.8
			c14.3,18.399,38,29.399,63.3,29.399l0,0c4.3,0,8.6-0.3,12.8-1c18.1-2.699,34.3-11.3,45.6-24.1c11.9-13.6,18-30.7,18-50.8
			C461.1,460.628,456.9,446.828,448.6,436.628z"/>
		<path d="M583.6,958.828H862.7c13.8,0,25-11.2,25-25v-159h51.8c20.9,0,32.6-24.101,19.6-40.5l-211.8-268.9l-4.5-5.7
			c-5-6.399-12.3-9.5-19.6-9.5s-14.601,3.2-19.601,9.5L487.2,734.328c-3.2,4.1-4.9,8.6-5.3,13.1c-1.301,13.7,9.199,27.4,24.899,27.4
			h51.8v159C558.6,947.628,569.8,958.828,583.6,958.828z"/>
	</g>
</g>
<g>
</g>
<g>
</g>
<g>
</g>
<g>
</g>
<g>
</g>
<g>
</g>
<g>
</g>
<g>
</g>
<g>
</g>
<g>
</g>
<g>
</g>
<g>
</g>
<g>
</g>
<g>
</g>
<g>
</g>
</svg>
