<?xml version="1.0" encoding="iso-8859-1"?>
<!-- Generator: Adobe Illustrator 18.0.0, SVG Export Plug-In . SVG Version: 6.00 Build 0)  -->
<!DOCTYPE svg PUBLIC "-//W3C//DTD SVG 1.1//EN" "http://www.w3.org/Graphics/SVG/1.1/DTD/svg11.dtd">
<svg version="1.1" id="Capa_1" xmlns="http://www.w3.org/2000/svg" xmlns:xlink="http://www.w3.org/1999/xlink" x="0px" y="0px"
	 viewBox="0 0 490 490" style="enable-background:new 0 0 490 490;" xml:space="preserve">
<g>
	<path d="M5.891,97.03h74.772c3.253,0,5.891-2.637,5.891-5.89V68.562c0-3.253-2.638-5.891-5.891-5.891H5.891
		C2.638,62.671,0,65.309,0,68.562v22.579C0,94.394,2.638,97.03,5.891,97.03z"/>
	<path d="M486.663,157.581c-2.081-1.36-4.708-1.578-6.986-0.578L358.099,210.39v-46.645c0-2.486-1.255-4.805-3.337-6.164
		c-2.082-1.36-4.709-1.578-6.986-0.578l-121.577,53.388v-46.646c0-2.486-1.256-4.805-3.337-6.164
		c-2.083-1.361-4.709-1.577-6.986-0.578L86.554,213.79v-90.01c0-3.252-2.638-5.89-5.891-5.89H5.891c-3.253,0-5.891,2.638-5.891,5.89
		v289.583c0,7.714,6.253,13.966,13.965,13.966h468.673c4.066,0,7.362-3.296,7.362-7.362V163.745
		C490,161.259,488.745,158.94,486.663,157.581z M176.466,338.115c0,3.811-3.09,6.901-6.902,6.901h-33.358
		c-3.812,0-6.901-3.091-6.901-6.901V282.9c0-3.812,3.09-6.901,6.901-6.901h33.358c3.813,0,6.902,3.09,6.902,6.901V338.115z
		 M308.366,338.115c0,3.811-3.09,6.901-6.901,6.901h-33.358c-3.811,0-6.902-3.091-6.902-6.901V282.9
		c0-3.812,3.091-6.901,6.902-6.901h33.358c3.811,0,6.901,3.09,6.901,6.901V338.115z M440.268,338.115c0,3.811-3.089,6.901-6.9,6.901
		h-33.359c-3.811,0-6.901-3.091-6.901-6.901V282.9c0-3.812,3.091-6.901,6.901-6.901h33.359c3.811,0,6.9,3.09,6.9,6.901V338.115z"/>
</g>
<g>
</g>
<g>
</g>
<g>
</g>
<g>
</g>
<g>
</g>
<g>
</g>
<g>
</g>
<g>
</g>
<g>
</g>
<g>
</g>
<g>
</g>
<g>
</g>
<g>
</g>
<g>
</g>
<g>
</g>
</svg>
