<?xml version="1.0" encoding="iso-8859-1"?>
<!-- Generator: Adobe Illustrator 18.1.1, SVG Export Plug-In . SVG Version: 6.00 Build 0)  -->
<svg version="1.1" id="Capa_1" xmlns="http://www.w3.org/2000/svg" xmlns:xlink="http://www.w3.org/1999/xlink" x="0px" y="0px"
	 viewBox="0 0 23.304 23.304" style="enable-background:new 0 0 23.304 23.304;" xml:space="preserve">
<g>
	<g>
		<path style="fill:#010002;" d="M11.652,5.504c-3.526,0-6.387,2.856-6.387,6.386c0,2.149,1.068,4.04,2.699,5.197h7.378
			c1.626-1.157,2.696-3.048,2.696-5.197C18.039,8.362,15.179,5.504,11.652,5.504z M11.649,16.012c-0.371,0-0.667-1.109-0.667-2.477
			s0.297-2.478,0.667-2.478c0.373,0,0.675,1.109,0.675,2.478C12.325,14.903,12.023,16.012,11.649,16.012z"/>
		<path style="fill:#010002;" d="M7.984,22.354h1.729c0.229,0.541,0.99,0.95,1.938,0.95c0.949,0,1.709-0.409,1.938-0.95h1.732
			v-4.518H7.984V22.354z M8.786,18.793h5.732v0.81H8.786V18.793z M8.786,20.414h5.732v0.812H8.786V20.414z"/>
		<path style="fill:#010002;" d="M10.842,0h1.623v3.812h-1.623V0z M2.47,4.457L3.615,3.31l2.697,2.693L5.168,7.151L2.47,4.457z
			 M16.991,6.004l2.697-2.696l1.146,1.147l-2.697,2.696L16.991,6.004z"/>
	</g>
</g>
<g>
</g>
<g>
</g>
<g>
</g>
<g>
</g>
<g>
</g>
<g>
</g>
<g>
</g>
<g>
</g>
<g>
</g>
<g>
</g>
<g>
</g>
<g>
</g>
<g>
</g>
<g>
</g>
<g>
</g>
</svg>
